# xmcd
#
# Track frame offsets:
#	150
#	21174
#	35363
#	49373
#	64288
#	81094
#	95808
#	112801
#	128658
#	143015
#	156564
#	174752
#	188772
#	203897
#	218205
#	234714
#	249352
#	265943
#	282121
#	298388
#	315526
#
# Disc length: 4380 seconds
#
# Revision: 1
# Processed by: cddbd v1.5.2PL0 Copyright (c) Steve Scherf et al.
# Submitted via: audiograbber 1.83.01
#
DISCID=37111a15
DTITLE=Various Artist - RTL Hits Sommer 2018 CD1 2821
DYEAR=1900
DGENRE=
TTITLE0=Justin Timberlake Reat. Chris Stapleton - Say Something
TTITLE1=Jason Derulo Feat. French Montana - Tip Toe
TTITLE2=Tom Walker - Leave A Light On
TTITLE3=Nico Santos - Rooftop
TTITLE4=George Ezra - Paradise
TTITLE5=Alice Merton - Lash Out
TTITLE6=Die Fantastischen Vier Feat. Clueso - Zusammen
TTITLE7=Revolverheld - Immer Noch Fühlen
TTITLE8=Mark Forster Feat. Gentleman - Like A Lion
TTITLE9=Kyle Minogue - Dancing
TTITLE10=P!nk - Whatever You Want
TTITLE11=Michael Patrick Kelly - Roundabouts
TTITLE12=Mans Zelmerlöw - Happyland
TTITLE13=Bruno Mars - Finesse
TTITLE14=Lunchmoney Lewis - Who's Up?
TTITLE15=Jennifer Lopez - Us
TTITLE16=Maluma - El Préstamo
TTITLE17=Mc Fioti - Bum Bum Tam Tam
TTITLE18=Rita Ora - Anywhere
TTITLE19=Camila Cabello - Never Be The Same
TTITLE20=Nicky Jam and J Balvin - X
EXTD=
EXTT0=
EXTT1=
EXTT2=
EXTT3=
EXTT4=
EXTT5=
EXTT6=
EXTT7=
EXTT8=
EXTT9=
EXTT10=
EXTT11=
EXTT12=
EXTT13=
EXTT14=
EXTT15=
EXTT16=
EXTT17=
EXTT18=
EXTT19=
EXTT20=
PLAYORDER=
